<?xml version="1.0" encoding="UTF-8"?>
<svg id="Layer_1" xmlns="http://www.w3.org/2000/svg" version="1.1" viewBox="0 0 154 32">
  <!-- Generator: Adobe Illustrator 29.5.1, SVG Export Plug-In . SVG Version: 2.1.0 Build 141)  -->
  <defs>
    <style>
      .st0 {
        fill: #231f20;
      }

      .st1 {
        fill: #f37437;
      }

      .st2, .st3, .st4 {
        fill: #fff;
      }

      .st3 {
        fill-opacity: .7;
      }

      .st4 {
        fill-opacity: .9;
      }

      .st5 {
        fill: #f57e26;
      }
    </style>
  </defs>
  <path class="st5" d="M0,8.4C0,3.8,3.8,0,8.4,0h15.2C28.2,0,32,3.8,32,8.4v15.2c0,4.7-3.8,8.4-8.4,8.4h-15.2c-4.7,0-8.4-3.8-8.4-8.4v-15.2Z"/>
  <path class="st2" d="M8.4,8.4c0-.9.8-1.7,1.7-1.7s1.7.8,1.7,1.7v15.2c0,.9-.8,1.7-1.7,1.7s-1.7-.8-1.7-1.7v-15.2Z"/>
  <path class="st4" d="M14.7,15.2c0-.9.8-1.7,1.7-1.7s1.7.8,1.7,1.7v8.4c0,.9-.8,1.7-1.7,1.7s-1.7-.8-1.7-1.7v-8.4Z" shape-rendering="crispEdges"/>
  <path class="st3" d="M21.1,10.9c0-.9.8-1.7,1.7-1.7s1.7.8,1.7,1.7v12.6c0,.9-.8,1.7-1.7,1.7s-1.7-.8-1.7-1.7v-12.6Z" shape-rendering="crispEdges"/>
  <g>
    <path class="st0" d="M85,14v-4.2h-6.1V2.1h-4.2v15.7c-.7-4.5-4.6-8-9.3-8s-3.8.6-5.3,1.6V2.1h-4.2v7.7h-10.9c-3.2,0-5.8,2.6-5.8,5.8s2.6,5.8,5.8,5.8h5.7c.9,0,1.6.7,1.6,1.6s-.7,1.6-1.6,1.6h-10.2v4.2h10.2c3.2,0,5.8-2.6,5.8-5.8s0-.5,0-.7c1.3,3.8,4.8,6.5,9,6.5s8.7-3.5,9.3-8v2.3c0,3.2,2.6,5.8,5.8,5.8h4.5v-4.2h-4.5c-.9,0-1.6-.7-1.6-1.6v-9h6.1ZM50.7,17.2h-5.7c-.9,0-1.6-.7-1.6-1.6s.7-1.6,1.6-1.6h10.9v5.3c0,.5,0,1.1.1,1.6-.8-2.2-2.9-3.7-5.4-3.7ZM65.4,24.5c-2.9,0-5.3-2.4-5.3-5.3s2.4-5.3,5.3-5.3,5.3,2.4,5.3,5.3-2.4,5.3-5.3,5.3Z"/>
    <path class="st0" d="M97.9,28.9c-4.2,0-7.7-3.4-7.7-7.7s3.4-7.7,7.7-7.7,4,.8,5.4,2.2l-1.6,1.6c-1-1-2.4-1.6-3.9-1.6-3,0-5.4,2.4-5.4,5.4s2.4,5.4,5.4,5.4,4.8-1.9,5.3-4.3h-5.3v-2.2h7.7v1.1c0,4.2-3.4,7.7-7.7,7.7Z"/>
    <rect class="st0" x="147.7" y="12.6" width="2.2" height="16.1"/>
    <rect class="st0" x="106.8" y="12.6" width="2.2" height="16.1"/>
    <path class="st0" d="M115.7,28.9c-3.1,0-5.6-2.5-5.6-5.6s2.5-5.6,5.6-5.6,5.6,2.5,5.6,5.6-2.5,5.6-5.6,5.6ZM115.7,20c-1.8,0-3.3,1.5-3.3,3.3s1.5,3.3,3.3,3.3,3.3-1.5,3.3-3.3-1.5-3.3-3.3-3.3Z"/>
    <path class="st0" d="M128.2,17.7c-1.3,0-2.7.7-3.3,1.5v-6.6h-2.2v16.1h2.2v-1.4c.9,1,2.1,1.5,3.3,1.5,3.1,0,5.6-2.5,5.6-5.6s-2.5-5.6-5.6-5.6ZM128.2,26.7c-1.8,0-3.3-1.5-3.3-3.3s1.5-3.3,3.3-3.3,3.3,1.5,3.3,3.3-1.5,3.3-3.3,3.3Z"/>
    <path class="st0" d="M143.6,17.7v1.5c-.6-.9-2.1-1.5-3.3-1.5-3.1,0-5.6,2.5-5.6,5.6s2.5,5.6,5.6,5.6,2.6-.6,3.3-1.6v1.4h2.2v-11h-2.2ZM140.3,26.7c-1.8,0-3.3-1.5-3.3-3.3s1.5-3.3,3.3-3.3,3.3,1.5,3.3,3.3-1.5,3.3-3.3,3.3Z"/>
    <rect class="st1" x="86.1" y="9.8" width="4.2" height="4.2" rx=".7" ry=".7"/>
  </g>
</svg>