<?xml version="1.0" encoding="UTF-8"?>
<svg id="Layer_1" xmlns="http://www.w3.org/2000/svg" version="1.1" viewBox="0 0 32 32">
  <!-- Generator: Adobe Illustrator 29.5.1, SVG Export Plug-In . SVG Version: 2.1.0 Build 141)  -->
  <defs>
    <style>
      .st0 {
        fill: #7f6c62;
      }

      .st1, .st2, .st3 {
        fill: #fff;
      }

      .st2 {
        fill-opacity: .7;
      }

      .st3 {
        fill-opacity: .9;
      }

      .st4 {
        fill: #cf6b28;
      }
    </style>
  </defs>
  <path class="st0" d="M0,8.4C0,3.8,3.8,0,8.4,0h15.2C28.2,0,32,3.8,32,8.4v15.2c0,4.7-3.8,8.4-8.4,8.4h-15.2c-4.7,0-8.4-3.8-8.4-8.4v-15.2Z"/>
  <path class="st1" d="M8.4,8.4c0-.9.8-1.7,1.7-1.7s1.7.8,1.7,1.7v15.2c0,.9-.8,1.7-1.7,1.7s-1.7-.8-1.7-1.7c0,0,0-15.2,0-15.2Z"/>
  <path class="st3" d="M14.7,15.2c0-.9.8-1.7,1.7-1.7s1.7.8,1.7,1.7v8.4c0,.9-.8,1.7-1.7,1.7s-1.7-.8-1.7-1.7c0,0,0-8.4,0-8.4Z" shape-rendering="crispEdges"/>
  <path class="st2" d="M21.1,10.9c0-.9.8-1.7,1.7-1.7s1.7.8,1.7,1.7v12.6c0,.9-.8,1.7-1.7,1.7s-1.7-.8-1.7-1.7v-12.6Z" shape-rendering="crispEdges"/>
  <path class="st4" d="M0,8.7C0,4.1,3.8.3,8.4.3h15.2c4.6,0,8.4,3.8,8.4,8.4v15.2c0,4.7-3.8,8.4-8.4,8.4h-15.2C3.7,32.3,0,28.5,0,23.9c0,0,0-15.2,0-15.2Z"/>
  <path class="st1" d="M9.9,21.7c-.1-.5-.4-1-.8-1.3l1.8-3.1c.5.1,1,.1,1.5,0s1-.4,1.3-.8l3.1,1.8c-.1.5-.1,1,0,1.5.4,1.5,2,2.5,3.5,2s2.5-2,2-3.5-.3-.7-.5-1l3.2-4.1c.6.3,1.3.3,1.9.1,1.5-.4,2.5-2,2-3.5s-2-2.5-3.5-2-2.5,2-2,3.5.3.7.5,1l-3.2,4.1c-.6-.3-1.3-.3-1.9-.1-.6.2-1,.4-1.3.8l-3.1-1.8c.1-.5.1-1,0-1.5-.4-1.5-2-2.5-3.5-2s-2.5,2-2,3.5c.5,1.5.4,1,.8,1.3l-1.8,3.1c-.5-.1-1-.1-1.5,0-1.5.4-2.5,2-2,3.5s2,2.5,3.5,2,2.5-2,2-3.5h0ZM25.9,9.2c.8-.2,1.6.3,1.8,1s-.3,1.6-1,1.8-1.6-.3-1.8-1,.3-1.6,1-1.8ZM21,18.7c.2.8-.3,1.6-1,1.8s-1.6-.3-1.8-1,.3-1.6,1-1.8,1.6.3,1.8,1ZM11.3,13.1c.8-.2,1.6.3,1.8,1s-.3,1.6-1,1.8-1.6-.3-1.8-1,.3-1.6,1-1.8ZM5.7,22.8c-.2-.8.3-1.6,1-1.8s1.6.3,1.8,1-.3,1.6-1,1.8-1.6-.3-1.8-1Z"/>
</svg>