<?xml version="1.0" encoding="UTF-8"?>
<svg id="Layer_1" xmlns="http://www.w3.org/2000/svg" version="1.1" viewBox="0 0 32 32">
  <!-- Generator: Adobe Illustrator 29.5.1, SVG Export Plug-In . SVG Version: 2.1.0 Build 141)  -->
  <defs>
    <style>
      .st0 {
        fill: #f68a1f;
      }

      .st1, .st2, .st3 {
        fill: #fff;
      }

      .st2 {
        fill-opacity: .7;
      }

      .st3 {
        fill-opacity: .9;
      }
    </style>
  </defs>
  <path class="st0" d="M0,8.4C0,3.8,3.8,0,8.4,0h15.2C28.2,0,32,3.8,32,8.4v15.2c0,4.7-3.8,8.4-8.4,8.4h-15.2c-4.7,0-8.4-3.8-8.4-8.4v-15.2Z"/>
  <path class="st1" d="M8.4,8.4c0-.9.8-1.7,1.7-1.7s1.7.8,1.7,1.7v15.2c0,.9-.8,1.7-1.7,1.7s-1.7-.8-1.7-1.7v-15.2Z"/>
  <path class="st3" d="M14.7,15.2c0-.9.8-1.7,1.7-1.7s1.7.8,1.7,1.7v8.4c0,.9-.8,1.7-1.7,1.7s-1.7-.8-1.7-1.7v-8.4Z" shape-rendering="crispEdges"/>
  <path class="st2" d="M21.1,10.9c0-.9.8-1.7,1.7-1.7s1.7.8,1.7,1.7v12.6c0,.9-.8,1.7-1.7,1.7s-1.7-.8-1.7-1.7v-12.6Z" shape-rendering="crispEdges"/>
</svg>